<svg width="167" height="32" viewBox="0 0 167 32" fill="none" xmlns="http://www.w3.org/2000/svg">
<path fill-rule="evenodd" clip-rule="evenodd" d="M13.3442 0.543657C11.3705 1.04048 9.52226 1.65394 7.83222 2.37332C7.33252 2.58611 6.91288 2.991 6.4762 3.68203C3.89708 7.76407 2.11146 12.3795 1.27257 17.1321C0.905219 19.214 0.704306 24.1983 0.928968 25.6543C1.08832 26.6869 1.11667 26.7242 2.42959 27.6269C4.07367 28.7573 8.06799 30.7994 9.95607 31.4747C10.726 31.7501 11.3818 31.9755 11.4132 31.9755C11.6256 31.9755 13.7447 28.3639 13.597 28.2536C13.5633 28.2285 12.8246 27.8785 11.9556 27.476C11.0867 27.0734 10.3755 26.6298 10.3755 26.4904C10.3755 26.0002 11.2558 26.0037 12.4741 26.4986C14.2471 27.2191 17.2945 27.9238 19.5162 28.127C22.934 28.4395 27.112 27.8215 30.358 26.5229C31.7524 25.965 32.2655 25.9537 32.3666 26.4781C32.417 26.7401 32.0772 26.9776 30.8844 27.5141C30.0332 27.8967 29.3368 28.2877 29.3368 28.3828C29.3368 28.5912 30.1602 30.0426 30.9096 31.1556L31.4538 31.9636L32.8374 31.477C34.9612 30.7296 38.2789 29.0624 40.2039 27.7747L41.9407 26.6129L42.0694 24.6498C42.4465 18.8882 41.0263 12.3816 38.158 6.72848C36.1332 2.7378 36.1217 2.72554 33.5328 1.76656C31.6631 1.07381 30.2644 0.670638 27.7896 0.111185C27.3407 0.00967484 27.247 0.101992 26.755 1.13165L26.2139 2.26377L25.2375 2.13257C24.7007 2.06037 23.0116 2.00138 21.4842 2.00138C19.9567 2.00138 18.2676 2.06037 17.7308 2.13257L16.7544 2.26377L16.2112 1.12705C15.9124 0.501902 15.6192 -0.00449672 15.5594 0.00201523C15.4999 0.00833566 14.503 0.252151 13.3442 0.543657ZM78.4291 7.47353C77.9886 7.69168 77.4851 8.08833 77.3102 8.35551C76.8588 9.04444 76.8768 10.4206 77.3456 11.0603C78.9007 13.1818 82.4765 12.2209 82.4382 9.692C82.4219 8.61006 81.9963 7.9648 80.973 7.46931C79.9518 6.97498 79.4346 6.97574 78.4291 7.47353ZM160.331 10.4765C160.322 12.7524 160.275 13.227 160.091 12.9185C159.966 12.7078 159.468 12.1395 158.985 11.6555C158.277 10.9461 157.86 10.7088 156.833 10.4309C152.105 9.15093 148.135 12.8516 148.523 18.1782C148.725 20.951 149.786 22.9147 151.703 24.0639C154.132 25.5203 157.762 24.9731 159.5 22.8885L160.246 21.9938L160.342 23.202L160.438 24.4102H163.215H165.992L166.042 16.0308L166.092 7.65146H163.217H160.342L160.331 10.4765ZM56.3423 16.2708V24.3401L62.0402 24.273C67.6365 24.2071 67.7658 24.1968 69.2833 23.6883C71.2661 23.0241 72.7606 21.9517 73.7328 20.4959C74.6589 19.1092 75.018 17.7866 74.9839 15.8872C74.9236 12.5086 72.9945 9.97795 69.5577 8.76883C68.3815 8.35494 67.982 8.32717 62.3275 8.26607L56.3423 8.20133V16.2708ZM90.4546 10.3486C88.8561 10.5556 87.7719 10.9358 86.7253 11.6557C84.7848 12.9909 84.5097 15.6694 86.146 17.301C86.8778 18.0307 87.9739 18.4843 90.381 19.0531C92.7681 19.617 93.1157 19.785 93.1157 20.3743C93.1157 20.9491 92.8119 21.0584 91.2153 21.0584C89.6647 21.0584 87.2563 20.4758 86.0726 19.8141C85.6009 19.5503 85.1395 19.3347 85.0474 19.3347C84.9552 19.3347 84.88 20.1523 84.88 21.1515V22.9682L85.9813 23.5148C87.9184 24.4762 89.3269 24.7748 91.9665 24.7836C94.7439 24.7928 96.0736 24.4753 97.3475 23.4987C98.4764 22.6334 98.9579 21.6311 98.9425 20.1785C98.9176 17.8243 97.6319 16.6088 94.5066 15.985C91.0813 15.3015 90.9175 15.2484 90.8535 14.7989C90.7561 14.1142 91.4195 13.9104 93.388 14.0202C95.0015 14.11 95.6128 14.2705 97.9518 15.2178C98.2569 15.3415 98.2869 15.1912 98.2869 13.5398V11.7258L97.1857 11.2422C95.2537 10.3938 92.7106 10.0561 90.4546 10.3486ZM106.6 10.4125C104.421 10.9113 102.429 12.2251 101.415 13.8313C100.725 14.9247 100.327 16.7224 100.46 18.1472C100.776 21.5313 103.312 24.0691 107.024 24.7155C109.239 25.1012 112.333 24.6703 114.232 23.7117L114.95 23.3489V21.3195C114.95 19.4728 114.92 19.2998 114.615 19.399C114.43 19.459 113.806 19.6817 113.226 19.8939C111.949 20.3618 109.871 20.4128 108.513 20.0096C107.178 19.6133 106.493 18.8453 106.375 17.614C106.285 16.6755 106.309 16.615 107.073 15.8885C108.072 14.938 109.035 14.6736 111.119 14.778C112.626 14.8535 113.188 15.0161 114.806 15.8454C114.885 15.886 114.95 14.9738 114.95 13.8183C114.95 11.8137 114.929 11.7038 114.491 11.4171C112.907 10.3792 108.947 9.8751 106.6 10.4125ZM123.564 10.321C120.877 10.686 118.762 11.8628 117.622 13.6266C116.714 15.031 116.398 16.3179 116.542 18.0285C116.867 21.908 119.838 24.5048 124.314 24.8225C127.59 25.055 130.258 24.169 131.991 22.2721C133.245 20.9002 133.763 19.5151 133.77 17.5152C133.784 13.3228 130.848 10.5977 125.963 10.2677C125.225 10.2179 124.146 10.2419 123.564 10.321ZM143.966 10.7839C143.164 11.1587 142.436 11.9861 141.918 13.11L141.477 14.0676L141.421 12.4875L141.365 10.9074H138.596H135.826V17.7067V24.5059H138.581H141.335L141.421 21.4894C141.534 17.4872 141.956 16.4759 143.805 15.7698C144.613 15.461 145.442 15.4729 146.983 15.815L147.51 15.9318V13.5388C147.51 11.6523 147.449 11.0957 147.224 10.909C146.79 10.5481 144.647 10.466 143.966 10.7839ZM67.0857 12.884C69.3124 14.0564 69.4968 17.8216 67.4047 19.4006C66.548 20.0472 65.5291 20.29 63.6682 20.2912L62.0881 20.2923V16.366V12.4397H64.1649C65.9668 12.4397 66.3531 12.4985 67.0857 12.884ZM16.0811 13.7618C17.5262 14.5028 18.2309 15.7506 18.224 17.5569C18.215 19.9456 16.6873 21.6772 14.5891 21.6772C11.8014 21.6772 10.0861 18.4048 11.4036 15.5999C11.9143 14.5128 12.304 14.1127 13.2542 13.7005C14.1672 13.3046 15.2346 13.3276 16.0811 13.7618ZM29.9292 13.8432C33.0664 15.5001 32.4641 20.8629 29.0543 21.6319C26.7424 22.1534 24.7022 20.2471 24.6838 17.5485C24.6628 14.4496 27.407 12.5111 29.9292 13.8432ZM76.9386 14.1243C76.8821 14.181 76.8358 16.5399 76.8358 19.3667V24.5059H79.7087H82.5816V19.3123V14.1188L82.0549 14.2458C80.7859 14.5518 78.6459 14.5809 77.8484 14.3028C77.4046 14.1481 76.9951 14.0678 76.9386 14.1243ZM126.944 15.0234C128.575 16.0921 128.577 19.0956 126.948 20.0726C124.949 21.2708 122.446 20.2483 122.124 18.1018C121.806 15.9789 123.308 14.404 125.451 14.6135C126.012 14.6685 126.684 14.8529 126.944 15.0234ZM159.121 15.0234C160.359 15.8345 160.751 17.8973 159.909 19.1627C158.547 21.2069 155.028 20.692 154.399 18.3567C154.01 16.9117 154.697 15.4082 156.023 14.8041C156.751 14.4723 158.465 14.5936 159.121 15.0234Z" fill="white"/>
</svg>
