<svg width="268" height="52" viewBox="0 0 268 52" fill="none" xmlns="http://www.w3.org/2000/svg">
<path d="M24.3785 14.3379H8.60405L0.83456 0.884277H24.3785C40.0744 0.884277 47.9224 8.73224 47.9224 24.4282C47.9224 40.1241 40.0744 47.9721 24.3785 47.9721H4.19798V2.6821H17.6516V34.5184H24.3785C31.1053 34.5184 34.4687 31.155 34.4687 24.4282C34.4687 17.7013 31.1053 14.3379 24.3785 14.3379Z" fill="white"/>
<path d="M67.1503 47.9721H53.6967V0.884277H67.1503V47.9721Z" fill="white"/>
<path d="M93.7778 14.3379H72.9246V0.884277H119.979L95.7959 34.5184H116.649V47.9721H69.5949L93.7778 14.3379Z" fill="white"/>
<path d="M118.724 24.4282C118.724 8.73224 126.572 0.884277 142.267 0.884277C157.963 0.884277 165.811 8.73224 165.811 24.4282C165.811 40.1241 157.963 47.9721 142.267 47.9721C126.572 47.9721 118.724 40.1241 118.724 24.4282ZM142.267 14.3379C135.541 14.3379 132.177 17.7013 132.177 24.4282C132.177 31.155 135.541 34.5184 142.267 34.5184C148.994 34.5184 152.358 31.155 152.358 24.4282C152.358 17.7013 148.994 14.3379 142.267 14.3379Z" fill="white"/>
<path d="M175.117 14.3379L167.348 0.884277H199.3C209.39 0.884277 214.436 5.9294 214.436 16.0196C214.436 22.5222 212.339 26.9283 208.146 29.2379L218.976 47.9721H203.471L193.751 31.155H184.165V44.6087L170.711 51.3355V17.7013H199.3C200.421 17.7013 200.982 17.1408 200.982 16.0196C200.982 14.8985 200.421 14.3379 199.3 14.3379H175.117Z" fill="white"/>
<path d="M243.835 13.9498H259.609L267.379 0.496094H243.835C228.139 0.496094 220.291 8.34406 220.291 24.04C220.291 39.7359 228.139 47.5839 243.835 47.5839H264.015V2.78855H259.609H257.288H250.562V34.1302H243.835C237.108 34.1302 233.745 30.7668 233.745 24.04C233.745 17.3132 237.108 13.9498 243.835 13.9498Z" fill="white"/>
</svg>
