<svg width="692" height="133" viewBox="0 0 692 133" fill="none" xmlns="http://www.w3.org/2000/svg">
<path d="M61.6895 36.3805H20.7898L0.645233 1.49805H61.6895C102.386 1.49805 122.734 21.8461 122.734 62.5423C122.734 103.238 102.386 123.587 61.6895 123.587H9.36584V6.15942H44.2483V88.7041H61.6895C79.1307 88.7041 87.8513 79.9835 87.8513 62.5423C87.8513 45.1011 79.1307 36.3805 61.6895 36.3805Z" fill="white"/>
<path d="M172.588 123.587H137.705V1.49805H172.588V123.587Z" fill="white"/>
<path d="M241.627 36.3805H187.559V1.49805H309.561L246.859 88.7041H300.927V123.587H178.926L241.627 36.3805Z" fill="white"/>
<path d="M306.306 62.5423C306.306 21.8461 326.654 1.49805 367.35 1.49805C408.047 1.49805 428.395 21.8461 428.395 62.5423C428.395 103.238 408.047 123.587 367.35 123.587C326.654 123.587 306.306 103.238 306.306 62.5423ZM367.35 36.3805C349.909 36.3805 341.189 45.1011 341.189 62.5423C341.189 79.9835 349.909 88.7041 367.35 88.7041C384.792 88.7041 393.512 79.9835 393.512 62.5423C393.512 45.1011 384.792 36.3805 367.35 36.3805Z" fill="white"/>
<path d="M452.523 36.3805L432.378 1.49805H515.224C541.386 1.49805 554.467 14.579 554.467 40.7408C554.467 57.6006 549.031 69.0246 538.159 75.0128L566.24 123.587H526.038L500.835 79.9835H475.981V114.866L441.099 132.307V45.1011H515.224C518.131 45.1011 519.584 43.6477 519.584 40.7408C519.584 37.8339 518.131 36.3805 515.224 36.3805H452.523Z" fill="white"/>
<path d="M630.693 35.3751H671.592L691.737 0.492676H630.693C589.996 0.492676 569.648 20.8408 569.648 61.5369C569.648 102.233 589.996 122.581 630.693 122.581H683.016V6.43652H671.592H665.575H648.134V87.6988H630.693C613.251 87.6988 604.531 78.9782 604.531 61.5369C604.531 44.0957 613.251 35.3751 630.693 35.3751Z" fill="white"/>
</svg>
