<svg width="22" height="22" viewBox="0 0 22 22" fill="none" xmlns="http://www.w3.org/2000/svg">
<g filter="url(#filter0_d_126_4902)">
<path fill-rule="evenodd" clip-rule="evenodd" d="M13.5033 2.99041C13.5819 3.14292 13.6015 3.33824 13.6405 3.72887V3.72888C13.7145 4.46828 13.7514 4.83798 13.9062 5.04083C14.1025 5.29811 14.4217 5.43033 14.7424 5.3872C14.9953 5.35319 15.2828 5.1179 15.858 4.64731C16.1619 4.39868 16.3138 4.27436 16.4773 4.22214C16.6849 4.15584 16.9095 4.16704 17.1095 4.25367C17.2669 4.3219 17.4057 4.46071 17.6834 4.73834L18.4881 5.54306C18.7657 5.82067 18.9045 5.95948 18.9727 6.11695C19.0594 6.31692 19.0706 6.54153 19.0043 6.74913C18.952 6.91261 18.8277 7.06454 18.5791 7.36839C18.1085 7.94355 17.8733 8.23113 17.8393 8.484C17.7961 8.8047 17.9283 9.12389 18.1856 9.32017C18.3885 9.47493 18.7582 9.5119 19.4978 9.58586C19.8886 9.62494 20.084 9.64448 20.2366 9.72319C20.4302 9.82309 20.581 9.98978 20.6612 10.1924C20.7243 10.352 20.7243 10.5484 20.7243 10.9411V12.0791C20.7243 12.4716 20.7243 12.6679 20.6612 12.8275C20.5811 13.0302 20.4302 13.197 20.2364 13.2969C20.0839 13.3755 19.8886 13.395 19.4979 13.4341C18.7587 13.508 18.3891 13.545 18.1863 13.6996C17.9289 13.8959 17.7966 14.2153 17.8398 14.5362C17.8739 14.7889 18.1091 15.0763 18.5794 15.6512C18.8279 15.9549 18.9521 16.1068 19.0043 16.2701C19.0707 16.4778 19.0595 16.7026 18.9728 16.9026C18.9046 17.06 18.7658 17.1987 18.4884 17.4762L18.4884 17.4762L17.6835 18.2811L17.6835 18.2811C17.4059 18.5587 17.267 18.6975 17.1096 18.7658C16.9096 18.8524 16.685 18.8636 16.4774 18.7973C16.3139 18.7451 16.162 18.6208 15.8581 18.3721C15.2829 17.9015 14.9953 17.6662 14.7424 17.6322C14.4217 17.5891 14.1026 17.7213 13.9063 17.9785C13.7515 18.1813 13.7145 18.5512 13.6406 19.2908C13.6015 19.6817 13.5819 19.8771 13.5032 20.0297C13.4033 20.2233 13.2366 20.3741 13.0341 20.4542C12.8744 20.5174 12.678 20.5174 12.2853 20.5174H11.1474C10.7548 20.5174 10.5585 20.5174 10.3989 20.4543C10.1962 20.3742 10.0295 20.2232 9.92956 20.0295C9.8509 19.877 9.83136 19.6817 9.7923 19.2911C9.71836 18.5517 9.68139 18.182 9.52668 17.9792C9.33039 17.7218 9.01114 17.5896 8.69038 17.6328C8.43756 17.6668 8.15003 17.902 7.57497 18.3726L7.57494 18.3726C7.27115 18.6211 7.11925 18.7454 6.95581 18.7976C6.74817 18.864 6.52353 18.8528 6.32352 18.7661C6.16608 18.6979 6.0273 18.5591 5.74975 18.2815L5.74973 18.2815L4.94491 17.4767C4.66733 17.1991 4.52854 17.0603 4.46032 16.9029C4.37365 16.7029 4.36245 16.4782 4.42878 16.2706C4.481 16.1072 4.60531 15.9552 4.85392 15.6514C5.32439 15.0764 5.55962 14.7889 5.59367 14.5361C5.63688 14.2153 5.5046 13.8959 5.24719 13.6996C5.04439 13.545 4.67481 13.508 3.93565 13.4341H3.93564C3.54514 13.395 3.34989 13.3755 3.19742 13.2969C3.00363 13.197 2.85267 13.0302 2.77253 12.8274C2.70947 12.6679 2.70947 12.4716 2.70947 12.0792V10.941C2.70947 10.5484 2.70947 10.352 2.77258 10.1925C2.85272 9.98979 3.00361 9.82306 3.19729 9.72315C3.34982 9.64448 3.54515 9.62494 3.93582 9.58588C4.6753 9.51193 5.04504 9.47495 5.24789 9.32018C5.50514 9.12391 5.63735 8.80473 5.59423 8.48404C5.56023 8.23117 5.32489 7.94353 4.8542 7.36824L4.8542 7.36824C4.60545 7.06421 4.48107 6.91219 4.42885 6.74864C4.3626 6.54112 4.3738 6.31661 4.46037 6.11671C4.5286 5.95916 4.66746 5.8203 4.94519 5.54258L5.74988 4.73789C6.02742 4.46034 6.1662 4.32157 6.32363 4.25335C6.52364 4.16666 6.7483 4.15546 6.95595 4.22181C7.11939 4.27403 7.2713 4.39832 7.57513 4.64691C8.15007 5.11732 8.43754 5.35252 8.69026 5.38658C9.01114 5.42982 9.33053 5.29752 9.52684 5.04006C9.68146 4.83727 9.71841 4.46774 9.79232 3.72868V3.72868C9.83137 3.33823 9.85089 3.143 9.92949 2.99055C10.0294 2.79673 10.1963 2.64574 10.399 2.5656C10.5586 2.50256 10.7548 2.50256 11.1472 2.50256H12.2855C12.6781 2.50256 12.8743 2.50256 13.0339 2.56566C13.2366 2.6458 13.4034 2.79671 13.5033 2.99041ZM11.7165 15.1129C13.7064 15.1129 15.3195 13.4998 15.3195 11.5099C15.3195 9.52008 13.7064 7.90698 11.7165 7.90698C9.72667 7.90698 8.11356 9.52008 8.11356 11.5099C8.11356 13.4998 9.72667 15.1129 11.7165 15.1129Z" fill="white"/>
</g>
<defs>
<filter id="filter0_d_126_4902" x="0.421875" y="0.596232" width="21.2557" height="21.2555" filterUnits="userSpaceOnUse" color-interpolation-filters="sRGB">
<feFlood flood-opacity="0" result="BackgroundImageFix"/>
<feColorMatrix in="SourceAlpha" type="matrix" values="0 0 0 0 0 0 0 0 0 0 0 0 0 0 0 0 0 0 127 0" result="hardAlpha"/>
<feOffset dx="-0.667216" dy="-0.28595"/>
<feGaussianBlur stdDeviation="0.810191"/>
<feComposite in2="hardAlpha" operator="out"/>
<feColorMatrix type="matrix" values="0 0 0 0 0 0 0 0 0 0 0 0 0 0 0 0 0 0 0.1 0"/>
<feBlend mode="normal" in2="BackgroundImageFix" result="effect1_dropShadow_126_4902"/>
<feBlend mode="normal" in="SourceGraphic" in2="effect1_dropShadow_126_4902" result="shape"/>
</filter>
</defs>
</svg>
