<svg width="25" height="25" viewBox="0 0 25 25" fill="none" xmlns="http://www.w3.org/2000/svg">
<path d="M8.08936 11.8981H11.3548M9.72207 10.2654V13.5309M15.4366 12.7145H15.4447M17.8857 11.0818H17.8938M11.7213 7H14.2537C16.3966 7 17.468 7 18.309 7.40608C19.0494 7.76362 19.6646 8.33645 20.074 9.04954C20.539 9.85946 20.6153 10.9282 20.768 13.0656L20.9688 15.8775C21.0673 17.2563 19.9753 18.429 18.5931 18.429C17.8862 18.429 17.2158 18.115 16.7633 17.572L16.457 17.2045C16.1769 16.8683 16.0368 16.7002 15.8773 16.5644C15.543 16.2797 15.1382 16.0901 14.7054 16.0155C14.499 15.9799 14.2802 15.9799 13.8426 15.9799H12.1324C11.6948 15.9799 11.476 15.9799 11.2696 16.0155C10.8368 16.0901 10.432 16.2797 10.0977 16.5644C9.93819 16.7002 9.79812 16.8683 9.51798 17.2045L9.21172 17.572C8.75918 18.115 8.08883 18.429 7.38195 18.429C5.99967 18.429 4.90769 17.2562 5.00618 15.8775L5.20703 13.0656C5.3597 10.9282 5.43604 9.85946 5.901 9.04954C6.31039 8.33645 6.92559 7.76362 7.66604 7.40608C8.50702 7 9.57845 7 11.7213 7Z" stroke="white" stroke-width="1.55889" stroke-linecap="round" stroke-linejoin="round"/>
</svg>
