<svg width="25" height="25" viewBox="0 0 25 25" fill="none" xmlns="http://www.w3.org/2000/svg">
<path d="M15.8167 8.8777H15.8208M15.8167 15.8167H15.8208M8.8777 8.8777H8.88178M12.3472 12.1431H12.3513M8.8777 15.8167H8.88178M8.91852 19.6944H15.7759C17.1475 19.6944 17.8333 19.6944 18.3572 19.4275C18.818 19.1927 19.1927 18.818 19.4275 18.3572C19.6944 17.8333 19.6944 17.1475 19.6944 15.7759V8.91852C19.6944 7.54691 19.6944 6.8611 19.4275 6.33722C19.1927 5.87639 18.818 5.50173 18.3572 5.26693C17.8333 5 17.1475 5 15.7759 5H8.91852C7.54691 5 6.8611 5 6.33722 5.26693C5.87639 5.50173 5.50173 5.87639 5.26693 6.33722C5 6.8611 5 7.54691 5 8.91852V15.7759C5 17.1475 5 17.8333 5.26693 18.3572C5.50173 18.818 5.87639 19.1927 6.33722 19.4275C6.8611 19.6944 7.54691 19.6944 8.91852 19.6944ZM16.0208 8.8777C16.0208 8.99042 15.9295 9.08179 15.8167 9.08179C15.704 9.08179 15.6127 8.99042 15.6127 8.8777C15.6127 8.76499 15.704 8.67361 15.8167 8.67361C15.9295 8.67361 16.0208 8.76499 16.0208 8.8777ZM16.0208 15.8167C16.0208 15.9295 15.9295 16.0208 15.8167 16.0208C15.704 16.0208 15.6127 15.9295 15.6127 15.8167C15.6127 15.704 15.704 15.6127 15.8167 15.6127C15.9295 15.6127 16.0208 15.704 16.0208 15.8167ZM9.08179 8.8777C9.08179 8.99042 8.99042 9.08179 8.8777 9.08179C8.76499 9.08179 8.67361 8.99042 8.67361 8.8777C8.67361 8.76499 8.76499 8.67361 8.8777 8.67361C8.99042 8.67361 9.08179 8.76499 9.08179 8.8777ZM12.5513 12.1431C12.5513 12.2558 12.4599 12.3472 12.3472 12.3472C12.2345 12.3472 12.1431 12.2558 12.1431 12.1431C12.1431 12.0304 12.2345 11.939 12.3472 11.939C12.4599 11.939 12.5513 12.0304 12.5513 12.1431ZM9.08179 15.8167C9.08179 15.9295 8.99042 16.0208 8.8777 16.0208C8.76499 16.0208 8.67361 15.9295 8.67361 15.8167C8.67361 15.704 8.76499 15.6127 8.8777 15.6127C8.99042 15.6127 9.08179 15.704 9.08179 15.8167Z" stroke="white" stroke-width="1.55889" stroke-linecap="round" stroke-linejoin="round"/>
</svg>
