<svg width="25" height="25" viewBox="0 0 25 25" fill="none" xmlns="http://www.w3.org/2000/svg">
<path d="M9.85741 22.5926V14.86C9.85741 14.2748 9.85741 13.9822 9.96418 13.7587C10.0581 13.5621 10.208 13.4022 10.3923 13.302C10.6019 13.1881 10.8762 13.1881 11.4248 13.1881H14.1678C14.7164 13.1881 14.9907 13.1881 15.2003 13.302C15.3846 13.4022 15.5345 13.5621 15.6284 13.7587C15.7352 13.9822 15.7352 14.2748 15.7352 14.86V22.5926M3 10.5758L11.8559 3.49112C12.1931 3.22132 12.3617 3.08643 12.5469 3.03443C12.7104 2.98852 12.8822 2.98852 13.0457 3.03443C13.2309 3.08643 13.3995 3.22132 13.7367 3.49112L22.5926 10.5758M4.95926 9.00839V19.2488C4.95926 20.4192 4.95926 21.0045 5.17281 21.4515C5.36065 21.8447 5.66038 22.1644 6.02904 22.3648C6.44815 22.5926 6.99679 22.5926 8.09408 22.5926H17.4985C18.5958 22.5926 19.1445 22.5926 19.5636 22.3648C19.9322 22.1644 20.2319 21.8447 20.4198 21.4515C20.6333 21.0045 20.6333 20.4192 20.6333 19.2488V9.00839L14.6772 4.24348C14.0027 3.70388 13.6654 3.43409 13.2951 3.33009C12.9681 3.23828 12.6245 3.23828 12.2975 3.33009C11.9271 3.43409 11.5899 3.70388 10.9154 4.24348L4.95926 9.00839Z" stroke="white" stroke-width="1.55889" stroke-linecap="round" stroke-linejoin="round"/>
</svg>
