<svg width="25" height="25" viewBox="0 0 25 25" fill="none" xmlns="http://www.w3.org/2000/svg">
<path d="M15.6127 9.43442V6.5777C15.6127 5.89871 15.6127 5.55921 15.4696 5.35057C15.3447 5.16828 15.1511 5.04445 14.9332 5.00738C14.6839 4.96494 14.3756 5.10721 13.7591 5.39175L6.51762 8.73398C5.9678 8.98774 5.69288 9.11463 5.49153 9.31141C5.31353 9.48538 5.17765 9.69774 5.09429 9.93226C5 10.1975 5 10.5003 5 11.1059V15.1489M16.0208 14.7407H16.029M5 12.0468L5 17.4347C5 18.3491 5 18.8063 5.17796 19.1556C5.33449 19.4628 5.58426 19.7126 5.89148 19.8691C6.24074 20.0471 6.69794 20.0471 7.61235 20.0471H17.0821C17.9965 20.0471 18.4537 20.0471 18.803 19.8691C19.1102 19.7126 19.36 19.4628 19.5165 19.1556C19.6944 18.8063 19.6944 18.3491 19.6944 17.4347V12.0468C19.6944 11.1324 19.6944 10.6752 19.5165 10.3259C19.36 10.0187 19.1102 9.76891 18.803 9.61238C18.4537 9.43442 17.9965 9.43442 17.0821 9.43442L7.61235 9.43442C6.69794 9.43442 6.24074 9.43442 5.89148 9.61238C5.58426 9.76891 5.33449 10.0187 5.17796 10.3259C5 10.6752 5 11.1324 5 12.0468ZM16.429 14.7407C16.429 14.9662 16.2463 15.1489 16.0208 15.1489C15.7954 15.1489 15.6127 14.9662 15.6127 14.7407C15.6127 14.5153 15.7954 14.3326 16.0208 14.3326C16.2463 14.3326 16.429 14.5153 16.429 14.7407Z" stroke="white" stroke-width="1.55889" stroke-linecap="round" stroke-linejoin="round"/>
</svg>
