<svg width="25" height="25" viewBox="0 0 25 25" fill="none" xmlns="http://www.w3.org/2000/svg">
<path d="M6.0409 20.3272V16.2454M6.0409 8.08179V4M4 6.0409H8.08179M4 18.2863H8.08179M12.9799 4.81636L11.5642 8.4972C11.334 9.09578 11.2189 9.39507 11.0399 9.64682C10.8812 9.86994 10.6863 10.0649 10.4632 10.2235C10.2114 10.4025 9.91214 10.5176 9.31356 10.7479L5.63272 12.1636L9.31356 13.5793C9.91214 13.8095 10.2114 13.9246 10.4632 14.1036C10.6863 14.2623 10.8812 14.4572 11.0399 14.6803C11.2189 14.9321 11.334 15.2314 11.5642 15.83L12.9799 19.5108L14.3956 15.83C14.6259 15.2314 14.741 14.9321 14.92 14.6803C15.0786 14.4572 15.2736 14.2623 15.4967 14.1036C15.7484 13.9246 16.0477 13.8095 16.6463 13.5793L20.3272 12.1636L16.6463 10.7479C16.0477 10.5176 15.7484 10.4025 15.4967 10.2235C15.2736 10.0649 15.0786 9.86994 14.92 9.64682C14.741 9.39507 14.6259 9.09578 14.3956 8.4972L12.9799 4.81636Z" stroke="white" stroke-width="1.55889" stroke-linecap="round" stroke-linejoin="round"/>
</svg>
