<svg width="25" height="25" viewBox="0 0 25 25" fill="none" xmlns="http://www.w3.org/2000/svg">
<path d="M12.1636 4C13.2356 4 14.2972 4.21116 15.2876 4.62142C16.2781 5.03167 17.178 5.633 17.9361 6.39106C18.6942 7.14912 19.2955 8.04907 19.7057 9.03952C20.116 10.03 20.3272 11.0915 20.3272 12.1636M12.1636 4V12.1636M12.1636 4C7.65496 4 4 7.65496 4 12.1636C4 16.6722 7.65496 20.3272 12.1636 20.3272C16.6722 20.3272 20.3272 16.6722 20.3272 12.1636M12.1636 4C16.6722 4 20.3272 7.65496 20.3272 12.1636M20.3272 12.1636L12.1636 12.1636M20.3272 12.1636C20.3272 13.4519 20.0223 14.7219 19.4374 15.8698C18.8525 17.0177 18.0043 18.0108 16.962 18.7681L12.1636 12.1636" stroke="white" stroke-width="1.55889" stroke-linecap="round" stroke-linejoin="round"/>
</svg>
