<svg width="25" height="25" viewBox="0 0 25 25" fill="none" xmlns="http://www.w3.org/2000/svg">
<path d="M10.0818 11.6999L11.7145 13.3326L15.3881 9.65899M19.0617 12.1081C19.0617 16.1151 14.691 19.0295 13.1007 19.9572C12.9199 20.0627 12.8296 20.1154 12.702 20.1428C12.6031 20.164 12.4587 20.164 12.3597 20.1428C12.2322 20.1154 12.1418 20.0627 11.9611 19.9572C10.3707 19.0295 6 16.1151 6 12.1081V8.20392C6 7.55123 6 7.22489 6.10675 6.94436C6.20105 6.69654 6.35429 6.47542 6.55321 6.30011C6.77839 6.10166 7.08396 5.98708 7.69509 5.7579L12.0722 4.11647C12.242 4.05283 12.3268 4.02101 12.4141 4.00839C12.4915 3.9972 12.5702 3.9972 12.6476 4.00839C12.7349 4.02101 12.8198 4.05283 12.9895 4.11647L17.3666 5.7579C17.9778 5.98708 18.2833 6.10166 18.5085 6.30011C18.7074 6.47542 18.8607 6.69654 18.955 6.94436C19.0617 7.22489 19.0617 7.55123 19.0617 8.20392V12.1081Z" stroke="white" stroke-width="1.55889" stroke-linecap="round" stroke-linejoin="round"/>
</svg>
