<svg width="25" height="25" viewBox="0 0 25 25" fill="none" xmlns="http://www.w3.org/2000/svg">
<path d="M20.1026 20.3707H13.5718M5 20.7789L9.53019 19.0365C9.81995 18.9251 9.96483 18.8694 10.1004 18.7966C10.2208 18.732 10.3356 18.6574 10.4435 18.5736C10.565 18.4793 10.6748 18.3695 10.8943 18.15L20.1026 8.94173C21.0044 8.04 21.0044 6.57802 20.1026 5.67629C19.2009 4.77457 17.7389 4.77457 16.8372 5.67629L7.6289 14.8846C7.40938 15.1041 7.29962 15.2139 7.2053 15.3354C7.12153 15.4434 7.04694 15.5581 6.98231 15.6785C6.90955 15.8141 6.85383 15.959 6.74238 16.2487L5 20.7789ZM5 20.7789L6.68016 16.4106C6.80039 16.098 6.86051 15.9417 6.96362 15.8701C7.05373 15.8075 7.16523 15.7838 7.27298 15.8044C7.39628 15.828 7.5147 15.9464 7.75152 16.1832L9.59575 18.0274C9.83257 18.2642 9.95098 18.3827 9.97453 18.506C9.99511 18.6137 9.97145 18.7252 9.90888 18.8153C9.83729 18.9184 9.68099 18.9785 9.36839 19.0988L5 20.7789Z" stroke="white" stroke-width="1.55889" stroke-linecap="round" stroke-linejoin="round"/>
</svg>
