<svg width="2016" height="2015" viewBox="0 0 2016 2015" fill="none" xmlns="http://www.w3.org/2000/svg">
<g filter="url(#filter0_d_470_7692)">
<rect width="1964" height="1964" transform="translate(26)" fill="#E1E1E1"/>
<circle cx="1008" cy="982" r="982" fill="#E1E1E1"/>
<path d="M1201.37 1012.24H946.247L820.591 794.659H1201.37C1455.21 794.659 1582.14 921.584 1582.14 1175.43C1582.14 1429.28 1455.21 1556.21 1201.37 1556.21H874.988V823.735H1092.57V1338.62H1201.37C1310.16 1338.62 1364.55 1284.23 1364.55 1175.43C1364.55 1066.64 1310.16 1012.24 1201.37 1012.24Z" fill="#171717"/>
<path d="M823.589 960.752H1078.71L1204.36 1178.34H823.589C569.739 1178.34 442.815 1051.41 442.815 797.563C442.815 543.714 569.739 416.789 823.589 416.789H1149.97V779.025V1141.26H1078.71H1041.17H932.381V634.374H823.589C714.796 634.374 660.4 688.771 660.4 797.563C660.4 906.356 714.796 960.752 823.589 960.752Z" fill="#171717"/>
</g>
<defs>
<filter id="filter0_d_470_7692" x="0.900959" y="0" width="2014.2" height="2014.2" filterUnits="userSpaceOnUse" color-interpolation-filters="sRGB">
<feFlood flood-opacity="0" result="BackgroundImageFix"/>
<feColorMatrix in="SourceAlpha" type="matrix" values="0 0 0 0 0 0 0 0 0 0 0 0 0 0 0 0 0 0 127 0" result="hardAlpha"/>
<feOffset dy="25.099"/>
<feGaussianBlur stdDeviation="12.5495"/>
<feComposite in2="hardAlpha" operator="out"/>
<feColorMatrix type="matrix" values="0 0 0 0 0 0 0 0 0 0 0 0 0 0 0 0 0 0 0.25 0"/>
<feBlend mode="normal" in2="BackgroundImageFix" result="effect1_dropShadow_470_7692"/>
<feBlend mode="normal" in="SourceGraphic" in2="effect1_dropShadow_470_7692" result="shape"/>
</filter>
</defs>
</svg>
