<svg width="65" height="65" viewBox="0 0 65 65" fill="none" xmlns="http://www.w3.org/2000/svg">
<path d="M43.3154 34.0129H28.8589L21.7385 21.6832H43.3154C57.7001 21.6832 64.8924 28.8755 64.8924 43.2602C64.8924 57.6448 57.7001 64.8371 43.3154 64.8371H24.8209V23.3309H37.1506V52.5074H43.3154C49.4803 52.5074 52.5627 49.425 52.5627 43.2602C52.5627 37.0953 49.4803 34.0129 43.3154 34.0129Z" fill="#E1E1E1"/>
<path d="M21.9083 31.0951H36.3648L43.4852 43.4248H21.9083C7.52364 43.4248 0.331329 36.2325 0.331329 21.8479C0.331329 7.46322 7.52364 0.270904 21.9083 0.270904H40.4028V20.7974V41.3239H36.3648H34.238H28.0731V12.6006H21.9083C15.7434 12.6006 12.661 15.683 12.661 21.8479C12.661 28.0127 15.7434 31.0951 21.9083 31.0951Z" fill="#E1E1E1"/>
</svg>
