<svg width="410" height="492" viewBox="0 0 410 492" fill="none" xmlns="http://www.w3.org/2000/svg">
<path opacity="0.64" d="M205.261 491.454C318.295 491.454 409.928 473.026 409.928 450.295C409.928 427.564 318.295 409.137 205.261 409.137C92.2269 409.137 0.59436 427.564 0.59436 450.295C0.59436 473.026 92.2269 491.454 205.261 491.454Z" fill="#0A0130"/>
<path d="M107.15 443.683C110.023 434.372 118.815 429.412 133.093 425.235C142.146 422.625 153.638 421.407 171.658 417.752C180.451 416.012 186.631 412.531 186.631 412.531V422.538C186.631 422.538 126.999 434.285 117.684 449.687C113.157 457.257 114.55 475.791 135.878 477.706C129.349 478.663 118.641 477.009 112.896 471.179C105.757 463.957 103.842 454.299 107.15 443.683Z" fill="#282323" stroke="black" stroke-width="3.48061" stroke-miterlimit="10" stroke-linecap="round" stroke-linejoin="round"/>
<path d="M186.632 422.538C186.632 422.538 150.939 429.151 131.874 437.33C115.159 444.552 115.682 452.036 115.246 459.693C114.985 464.131 118.119 475.095 130.829 477.009C145.977 479.271 163.823 476.835 186.632 462.303C186.632 426.714 186.632 422.538 186.632 422.538Z" fill="#442C2A"/>
<path d="M186.632 422.538C186.632 422.538 150.939 429.151 131.874 437.33C115.159 444.552 115.682 452.036 115.246 459.693C114.985 464.131 118.119 475.095 130.829 477.009C145.977 479.271 163.823 476.835 186.632 462.303C186.632 426.714 186.632 422.538 186.632 422.538Z" stroke="black" stroke-width="3.48061" stroke-miterlimit="10" stroke-linecap="round" stroke-linejoin="round"/>
<path d="M277.169 393.301C258.365 406.353 231.639 413.837 203.695 413.837C175.837 413.837 149.024 406.353 130.22 393.301C121.602 387.297 107.15 374.767 107.15 358.06C107.15 341.353 121.602 328.823 130.22 322.819C149.024 309.766 175.75 302.283 203.695 302.283C231.552 302.283 258.365 309.766 277.169 322.819C285.788 328.823 300.239 341.353 300.239 358.06C300.239 374.767 285.788 387.297 277.169 393.301Z" fill="#151E28"/>
<path d="M363.266 371.982C362.918 373.722 362.57 375.375 362.048 377.116C348.467 426.627 283.002 464.218 204.217 464.218C125.258 464.218 59.6181 426.453 46.2986 376.768C45.9504 375.375 45.6022 373.983 45.341 372.591C44.9928 369.98 45.0798 367.37 45.6022 364.76C48.8232 350.141 66.5825 341.701 85.2993 345.877C97.5741 348.575 107.15 356.145 111.416 365.108C111.851 367.022 112.548 368.936 113.331 370.764C117.858 381.205 126.912 389.037 133.006 393.388C151.2 406.44 177.23 413.923 204.217 413.923C231.291 413.923 257.233 406.44 275.428 393.388C281.609 388.95 290.749 381.031 295.189 370.59C295.886 368.936 296.495 367.109 296.93 365.369C301.109 356.319 310.772 348.749 323.134 345.964C341.851 341.788 359.61 350.315 362.831 364.847C363.441 367.109 363.528 369.545 363.266 371.982Z" fill="#2A3749"/>
<path opacity="0.67" d="M362.831 364.673C362.744 364.238 362.657 363.89 362.483 363.455C362.222 364.847 361.873 366.326 361.438 367.718C348.032 417.23 282.479 454.82 203.781 454.82C124.822 454.82 59.1827 417.056 45.8633 367.37C45.6892 366.848 45.6021 366.326 45.428 365.717C45.0798 367.979 44.9927 370.242 45.3409 372.417C45.6021 373.809 45.9503 375.202 46.2985 376.594C59.618 426.28 125.258 464.044 204.217 464.044C283.002 464.044 348.467 426.454 362.048 376.942C362.483 375.289 362.918 373.548 363.266 371.808C363.528 369.546 363.44 367.109 362.831 364.673Z" fill="#151E28"/>
<path d="M363.266 371.982C362.918 373.722 362.57 375.375 362.048 377.116C348.467 426.627 283.002 464.218 204.217 464.218C125.258 464.218 59.6181 426.453 46.2986 376.768C45.9504 375.375 45.6022 373.983 45.341 372.591C44.9928 369.98 45.0798 367.37 45.6022 364.76C48.8232 350.141 66.5825 341.701 85.2993 345.877C97.5741 348.575 107.15 356.145 111.416 365.108C111.851 367.022 112.548 368.936 113.331 370.764C117.858 381.205 126.912 389.037 133.006 393.388C151.2 406.44 177.23 413.923 204.217 413.923C231.291 413.923 257.233 406.44 275.428 393.388C281.609 388.95 290.749 381.031 295.189 370.59C295.886 368.936 296.495 367.109 296.93 365.369C301.109 356.319 310.772 348.749 323.134 345.964C341.851 341.788 359.61 350.315 362.831 364.847C363.441 367.109 363.528 369.545 363.266 371.982Z" stroke="black" stroke-width="3.48061" stroke-miterlimit="10" stroke-linecap="round" stroke-linejoin="round"/>
<path d="M205.261 387.296C248.581 387.296 283.698 375.375 283.698 360.67C283.698 345.964 248.581 334.043 205.261 334.043C161.942 334.043 126.824 345.964 126.824 360.67C126.824 375.375 161.942 387.296 205.261 387.296Z" fill="#7B7B7B"/>
<path d="M205.261 387.296C248.581 387.296 283.698 375.375 283.698 360.67C283.698 345.964 248.581 334.043 205.261 334.043C161.942 334.043 126.824 345.964 126.824 360.67C126.824 375.375 161.942 387.296 205.261 387.296Z" stroke="black" stroke-width="3.48061" stroke-miterlimit="10" stroke-linecap="round" stroke-linejoin="round"/>
<path d="M294.58 302.544H113.853C100.011 302.544 89.3035 290.449 91.0446 276.7L99.0537 212.744C101.317 194.471 116.813 180.81 135.269 180.81H273.338C291.707 180.81 307.203 194.471 309.553 212.744L317.562 276.7C319.129 290.449 308.421 302.544 294.58 302.544Z" fill="white"/>
<path d="M294.58 302.544H113.853C100.011 302.544 89.3035 290.449 91.0446 276.7L99.0537 212.744C101.317 194.471 116.813 180.81 135.269 180.81H273.338C291.707 180.81 307.203 194.471 309.553 212.744L317.562 276.7C319.129 290.449 308.421 302.544 294.58 302.544Z" stroke="black" stroke-width="3.48061" stroke-miterlimit="10" stroke-linecap="round" stroke-linejoin="round"/>
<path d="M133.44 234.846L131.699 256.687" stroke="black" stroke-width="3.48061" stroke-miterlimit="10" stroke-linecap="round" stroke-linejoin="round"/>
<path d="M276.298 234.846L278.038 256.687" stroke="black" stroke-width="3.48061" stroke-miterlimit="10" stroke-linecap="round" stroke-linejoin="round"/>
<path d="M294.58 302.544H113.853C100.011 302.544 89.3035 290.449 91.0446 276.7L99.0537 212.744C101.317 194.471 116.813 180.81 135.269 180.81H273.338C291.707 180.81 307.203 194.471 309.553 212.744L317.562 276.7C319.129 290.449 308.421 302.544 294.58 302.544Z" fill="white"/>
<g opacity="0.24">
<path opacity="0.24" d="M98.9669 219.531C101.23 201.258 116.726 187.597 135.182 187.597H273.251C291.62 187.597 307.116 201.258 309.466 219.531L317.388 282.965C317.649 280.964 317.736 278.876 317.475 276.7L309.466 212.744C307.203 194.471 291.707 180.81 273.251 180.81H135.182C116.813 180.81 101.317 194.471 98.9669 212.744L90.9578 276.7C90.6966 278.789 90.6966 280.877 91.0448 282.965L98.9669 219.531Z" fill="#7B7B7B"/>
<path opacity="0.24" d="M143.191 187.597C143.191 187.597 153.899 189.511 154.769 195.428C155.466 200.214 155.379 203.347 157.207 205.261C159.035 207.176 163.301 211.091 171.919 211.091C167.131 206.305 167.044 189.511 165.738 189.511C164.519 189.511 161.385 181.158 161.385 181.158L157.207 179.244C157.294 179.244 141.885 181.158 143.191 187.597Z" fill="#7B7B7B"/>
<path opacity="0.24" d="M257.581 187.597C257.581 187.597 246.874 189.511 246.003 195.428C245.307 200.214 245.394 203.347 243.565 205.261C241.737 207.089 237.472 211.091 228.853 211.091C233.641 206.305 233.728 189.511 235.034 189.511C236.253 189.511 239.387 181.158 239.387 181.158L243.565 179.244C243.478 179.244 258.887 181.158 257.581 187.597Z" fill="#7B7B7B"/>
</g>
<path d="M294.58 302.544H113.853C100.011 302.544 89.3035 290.449 91.0446 276.7L99.0537 212.744C101.317 194.471 116.813 180.81 135.269 180.81H273.338C291.707 180.81 307.203 194.471 309.553 212.744L317.562 276.7C319.129 290.449 308.421 302.544 294.58 302.544Z" stroke="black" stroke-width="3.48061" stroke-miterlimit="10" stroke-linecap="round" stroke-linejoin="round"/>
<path d="M133.44 234.846L131.699 256.687" stroke="black" stroke-width="3.48061" stroke-miterlimit="10" stroke-linecap="round" stroke-linejoin="round"/>
<path d="M276.298 234.846L278.038 256.687" stroke="black" stroke-width="3.48061" stroke-miterlimit="10" stroke-linecap="round" stroke-linejoin="round"/>
<path d="M180.973 144.437L152.332 142.958L138.925 144.437C138.925 144.437 129.958 151.137 129.958 152.965C129.958 154.792 130.829 169.672 130.829 169.672C130.829 169.672 151.983 172.543 154.247 174.719C156.51 176.894 169.917 189.424 169.917 189.424L182.888 184.377L189.678 166.278L180.973 144.437Z" fill="#7B7B7B"/>
<path d="M175.924 133.386H142.843C129.524 133.386 118.642 144.176 118.642 157.576C118.642 170.89 129.437 181.767 142.843 181.767H147.196C154.247 181.767 159.906 187.423 159.906 194.471V195.776C159.906 204.217 166.783 211.091 175.228 211.091V195.428C175.402 195.428 175.576 195.602 175.576 195.776V194.471C175.576 178.808 162.866 166.104 147.196 166.104H142.843C138.142 166.104 134.312 162.275 134.312 157.576C134.312 152.878 138.142 149.049 142.843 149.049H175.924V133.386Z" fill="white"/>
<path d="M173.922 184.639C169.917 173.849 159.47 166.018 147.283 166.018H142.93C138.229 166.018 134.399 162.189 134.399 157.49C134.399 152.791 138.229 148.963 142.93 148.963H176.011V133.3H142.93C129.611 133.3 118.729 144.09 118.729 157.49C118.729 170.803 129.523 181.68 142.93 181.68H147.283C154.334 181.68 159.993 187.336 159.993 194.384V195.69C159.993 204.13 166.87 211.004 175.314 211.004" stroke="black" stroke-width="3.48061" stroke-miterlimit="10" stroke-linecap="round" stroke-linejoin="round"/>
<path d="M218.842 144.437L247.483 142.958L260.889 144.437C260.889 144.437 269.856 151.137 269.856 152.965C269.856 154.792 268.985 169.672 268.985 169.672C268.985 169.672 247.831 172.543 245.567 174.719C243.304 176.981 229.898 189.424 229.898 189.424L216.926 184.377L210.136 166.278L218.842 144.437Z" fill="#7B7B7B"/>
<path d="M223.891 133.386H256.972C270.291 133.386 281.173 144.176 281.173 157.576C281.173 170.89 270.378 181.767 256.972 181.767H252.619C245.568 181.767 239.909 187.423 239.909 194.471V195.776C239.909 204.217 233.032 211.091 224.587 211.091V195.428C224.413 195.428 224.239 195.602 224.239 195.776V194.471C224.239 178.808 236.949 166.104 252.619 166.104H256.972C261.673 166.104 265.503 162.275 265.503 157.576C265.503 152.878 261.673 149.049 256.972 149.049H223.891V133.386Z" fill="white"/>
<path d="M225.98 184.639C229.985 173.849 240.431 166.018 252.619 166.018H256.972C261.673 166.018 265.503 162.189 265.503 157.49C265.503 152.791 261.673 148.963 256.972 148.963H223.891V133.3H256.972C270.291 133.3 281.173 144.09 281.173 157.49C281.173 170.803 270.378 181.68 256.972 181.68H252.619C245.568 181.68 239.909 187.336 239.909 194.384V195.69C239.909 204.13 233.032 211.004 224.587 211.004" stroke="black" stroke-width="3.48061" stroke-miterlimit="10" stroke-linecap="round" stroke-linejoin="round"/>
<path d="M201.518 198.735C220.269 198.735 235.47 183.541 235.47 164.799C235.47 146.057 220.269 130.863 201.518 130.863C182.768 130.863 167.567 146.057 167.567 164.799C167.567 183.541 182.768 198.735 201.518 198.735Z" fill="#F9EEEE"/>
<path d="M169.046 154.793C178.448 160.797 189.591 164.364 201.518 164.364C213.444 164.364 224.587 160.884 233.989 154.793C229.723 140.87 216.839 130.776 201.518 130.776C186.283 130.863 173.312 140.957 169.046 154.793Z" fill="white"/>
<path d="M201.518 198.735C220.269 198.735 235.47 183.541 235.47 164.799C235.47 146.057 220.269 130.863 201.518 130.863C182.768 130.863 167.567 146.057 167.567 164.799C167.567 183.541 182.768 198.735 201.518 198.735Z" stroke="black" stroke-width="3.48061" stroke-miterlimit="10" stroke-linecap="round" stroke-linejoin="round"/>
<path d="M201.518 184.464C190.462 184.464 181.496 175.501 181.496 164.45V149.484C181.496 146.699 183.759 144.437 186.545 144.437H216.579C219.365 144.437 221.628 146.699 221.628 149.484V164.45C221.541 175.501 212.574 184.464 201.518 184.464Z" fill="#FFC897"/>
<path d="M216.579 144.437H186.545C183.759 144.437 181.496 146.873 181.496 149.832V162.101C187.764 164.451 194.467 165.756 201.518 165.756C208.57 165.756 215.273 164.451 221.541 162.101V149.832C221.541 146.873 219.278 144.437 216.579 144.437Z" fill="#E5A973"/>
<path d="M201.518 184.464C190.462 184.464 181.496 175.501 181.496 164.45V149.484C181.496 146.699 183.759 144.437 186.545 144.437H216.579C219.365 144.437 221.628 146.699 221.628 149.484V164.45C221.541 175.501 212.574 184.464 201.518 184.464Z" stroke="black" stroke-width="3.48061" stroke-miterlimit="10" stroke-linecap="round" stroke-linejoin="round"/>
<path d="M223.195 409.92H204.565V469.352H223.195V409.92Z" fill="#607691"/>
<path d="M223.195 409.92H204.565V469.352H223.195V409.92Z" stroke="black" stroke-width="3.48061" stroke-miterlimit="10" stroke-linecap="round" stroke-linejoin="round"/>
<path d="M113.243 370.59C112.46 368.762 111.851 366.935 111.329 364.934C112.286 366.848 112.895 368.675 113.243 370.59Z" stroke="black" stroke-width="3.48061" stroke-miterlimit="10" stroke-linecap="round" stroke-linejoin="round"/>
<path d="M295.276 370.416C295.624 368.589 296.233 366.849 297.016 365.195C296.581 367.023 295.972 368.763 295.276 370.416Z" stroke="black" stroke-width="3.48061" stroke-miterlimit="10" stroke-linecap="round" stroke-linejoin="round"/>
<path d="M295.015 366.239H113.505C107.063 366.239 101.579 361.453 100.708 355.014L89.391 266.433C88.4334 258.776 94.4402 251.901 102.188 251.901H306.332C314.08 251.901 320.087 258.689 319.13 266.433L307.812 355.014C306.942 361.366 301.457 366.239 295.015 366.239Z" fill="#B5B5B5"/>
<path opacity="0.21" d="M307.725 349.445C306.942 355.884 301.457 360.67 294.928 360.67H113.505C107.063 360.67 101.579 355.884 100.708 349.445L89.5652 262.168C89.3041 263.561 89.217 264.953 89.3911 266.432L100.708 355.014C101.492 361.453 106.976 366.239 113.505 366.239H295.015C301.457 366.239 306.942 361.453 307.812 355.014L319.13 266.432C319.304 264.953 319.217 263.561 318.956 262.168L307.725 349.445Z" fill="#7E7E7E"/>
<path opacity="0.21" d="M89.4781 267.215C90.5228 261.298 95.7461 256.599 102.101 256.599H306.245C312.688 256.599 317.824 261.211 318.868 267.215L318.955 266.345C319.913 258.688 313.906 251.813 306.158 251.813H102.188C94.4402 251.813 88.4334 258.601 89.391 266.345L89.4781 267.215Z" fill="#7E7E7E"/>
<path d="M295.015 366.239H113.505C107.063 366.239 101.579 361.453 100.708 355.014L89.391 266.433C88.4334 258.776 94.4402 251.901 102.188 251.901H306.332C314.08 251.901 320.087 258.689 319.13 266.433L307.812 355.014C306.942 361.366 301.457 366.239 295.015 366.239Z" stroke="black" stroke-width="3.48061" stroke-miterlimit="10" stroke-linecap="round" stroke-linejoin="round"/>
<path opacity="0.66" d="M212.835 303.675C208.918 303.675 205.784 300.542 205.784 296.627C205.784 296.366 205.784 296.105 205.871 295.843C205.175 295.756 204.478 295.669 203.782 295.669C197.427 295.669 192.203 300.89 192.203 307.242C192.203 313.595 197.427 318.815 203.782 318.815C210.137 318.815 215.36 313.595 215.36 307.242C215.36 305.937 215.099 304.632 214.751 303.414C214.141 303.501 213.532 303.675 212.835 303.675Z" fill="#B5B5B5"/>
<path d="M302.676 443.683C299.803 434.372 291.011 429.412 276.733 425.235C267.68 422.625 256.188 421.407 238.168 417.752C229.376 416.012 223.195 412.531 223.195 412.531V422.538C223.195 422.538 282.827 434.285 292.142 449.687C296.669 457.257 295.276 475.791 273.948 477.706C280.477 478.663 291.185 477.009 296.93 471.179C304.069 463.957 305.984 454.299 302.676 443.683Z" fill="#282323" stroke="black" stroke-width="3.48061" stroke-miterlimit="10" stroke-linecap="round" stroke-linejoin="round"/>
<path d="M223.195 422.538C223.195 422.538 258.887 429.151 277.952 437.33C294.667 444.552 294.145 452.036 294.58 459.693C294.841 464.131 291.707 475.095 278.997 477.009C263.849 479.271 246.003 476.835 223.195 462.303C223.195 426.714 223.195 422.538 223.195 422.538Z" fill="#442C2A"/>
<path d="M223.195 422.538C223.195 422.538 258.887 429.151 277.952 437.33C294.667 444.552 294.145 452.036 294.58 459.693C294.841 464.131 291.707 475.095 278.997 477.009C263.849 479.271 246.003 476.835 223.195 462.303C223.195 426.714 223.195 422.538 223.195 422.538Z" stroke="black" stroke-width="3.48061" stroke-miterlimit="10" stroke-linecap="round" stroke-linejoin="round"/>
<path d="M170.962 202.215V248.507" stroke="black" stroke-width="5.22091" stroke-miterlimit="10" stroke-linecap="round" stroke-linejoin="round"/>
<path d="M229.724 202.215V234.846" stroke="black" stroke-width="5.22091" stroke-miterlimit="10" stroke-linecap="round" stroke-linejoin="round"/>
<path d="M229.724 244.679C233.714 244.679 236.949 241.445 236.949 237.457C236.949 233.468 233.714 230.234 229.724 230.234C225.733 230.234 222.498 233.468 222.498 237.457C222.498 241.445 225.733 244.679 229.724 244.679Z" fill="black"/>
<path d="M229.724 239.544C231.359 239.544 232.684 238.22 232.684 236.586C232.684 234.952 231.359 233.627 229.724 233.627C228.089 233.627 226.764 234.952 226.764 236.586C226.764 238.22 228.089 239.544 229.724 239.544Z" fill="#7E7E7E"/>
<path d="M201.518 159.143C171.223 159.143 146.586 134.605 146.586 104.237V40.5415H256.45V104.237C256.45 134.518 231.9 159.143 201.518 159.143Z" fill="#FFC897"/>
<path d="M201.518 151.572C171.223 151.572 146.586 127.034 146.586 96.6655V104.236C146.586 134.517 171.136 159.142 201.518 159.142C231.813 159.142 256.45 134.604 256.45 104.236V96.6655C256.45 126.947 231.9 151.572 201.518 151.572Z" fill="#E5A973"/>
<path d="M201.518 159.143C171.223 159.143 146.586 134.605 146.586 104.237V40.5415H256.45V104.237C256.45 134.518 231.9 159.143 201.518 159.143Z" stroke="black" stroke-width="3.48061" stroke-miterlimit="10" stroke-linecap="round" stroke-linejoin="round"/>
<path d="M256.885 46.8933C256.711 43.9348 256.537 40.8892 256.45 37.9307C219.886 39.671 183.149 39.41 146.673 36.1904C146.412 39.584 146.238 42.9776 145.977 46.3712C147.631 47.8505 149.372 49.4167 151.026 50.896C152.419 51.5921 154.247 52.5493 155.901 53.4194C163.213 57.2481 173.399 62.1209 183.149 64.0353C186.718 64.7314 190.462 65.0795 194.292 64.9924C210.746 64.8184 224.587 58.2923 230.42 55.5948C231.291 55.1597 231.987 54.8117 232.422 54.7247C232.771 54.5506 233.119 54.4636 233.641 54.4636C234.686 54.4636 235.905 54.7247 237.384 54.9857C239.3 55.4208 241.563 55.8558 244.088 55.6818C246.961 55.5078 249.572 54.6377 252.097 52.9844C253.577 50.896 255.231 48.8947 256.885 46.8933Z" fill="#E5A973"/>
<path d="M230.421 13.8276C230.421 13.8276 186.458 -15.1484 150.069 17.2212C143.278 23.2253 140.58 31.8398 140.58 39.7581V81.6994H146.674V51.2441C146.674 48.9817 148.241 47.2414 150.156 47.2414C153.29 47.2414 170.266 56.291 184.63 58.8144C206.306 62.5561 226.068 52.5494 230.334 51.0701C237.646 48.4596 243.566 57.5092 252.794 47.3285H253.142C255.057 47.3285 256.624 49.1558 256.624 51.3311V81.7864H262.718V40.0192C262.544 29.7514 250.704 3.9949 230.421 13.8276Z" fill="#231A17"/>
<g opacity="0.34">
<path opacity="0.34" d="M146.586 75.9565H140.492V81.6995H146.586V75.9565Z" fill="#231A17"/>
<path opacity="0.34" d="M262.544 75.9565H256.45V81.6995H262.544V75.9565Z" fill="#231A17"/>
</g>
<path d="M230.421 13.8276C230.421 13.8276 186.458 -15.1484 150.069 17.2212C143.278 23.2253 140.58 31.8398 140.58 39.7581V81.6994H146.674V51.2441C146.674 48.9817 148.241 47.2414 150.156 47.2414C153.29 47.2414 170.266 56.291 184.63 58.8144C206.306 62.5561 226.068 52.5494 230.334 51.0701C237.646 48.4596 243.566 57.5092 252.794 47.3285H253.142C255.057 47.3285 256.624 49.1558 256.624 51.3311V81.7864H262.718V40.0192C262.544 29.7514 250.704 3.9949 230.421 13.8276Z" stroke="black" stroke-width="3.48061" stroke-miterlimit="10" stroke-linecap="round" stroke-linejoin="round"/>
<path d="M193.248 42.1076C193.248 42.1076 146.064 45.1531 136.052 20.0928" stroke="black" stroke-width="3.48061" stroke-miterlimit="10" stroke-linecap="round" stroke-linejoin="round"/>
<path d="M199.95 36.1028C199.95 36.1028 154.507 33.2313 142.668 8.1709" stroke="black" stroke-width="3.48061" stroke-miterlimit="10" stroke-linecap="round" stroke-linejoin="round"/>
<path d="M256.449 74.9121V103.453C262.543 103.453 267.418 97.101 267.418 89.1826C267.418 81.2642 262.543 74.9121 256.449 74.9121Z" fill="#FFC897"/>
<path d="M256.449 76.4785V101.8C260.019 99.4505 262.456 94.6647 262.456 89.0957C262.456 83.6138 260.019 78.8279 256.449 76.4785Z" fill="#E5A973"/>
<path d="M256.449 74.9121V103.453C262.543 103.453 267.418 97.101 267.418 89.1826C267.418 81.2642 262.543 74.9121 256.449 74.9121Z" stroke="black" stroke-width="3.48061" stroke-miterlimit="10" stroke-linecap="round" stroke-linejoin="round"/>
<path d="M146.673 74.9121V103.453C140.579 103.453 135.704 97.101 135.704 89.1826C135.617 81.2642 140.579 74.9121 146.673 74.9121Z" fill="#FFC897"/>
<path d="M146.673 77.001C143.539 79.5244 141.363 84.0492 141.363 89.1831C141.363 94.317 143.452 98.8418 146.673 101.365V77.001Z" fill="#E5A973"/>
<path d="M146.673 74.9121V103.453C140.579 103.453 135.704 97.101 135.704 89.1826C135.617 81.2642 140.579 74.9121 146.673 74.9121Z" stroke="black" stroke-width="3.48061" stroke-miterlimit="10" stroke-linecap="round" stroke-linejoin="round"/>
<path d="M199.254 98.1455L195.598 110.067C195.598 111.372 199.864 110.328 204.217 111.372" stroke="black" stroke-width="3.48061" stroke-miterlimit="10" stroke-linecap="round" stroke-linejoin="round"/>
<path d="M219.8 120.421C221.106 129.471 209.44 137.476 200.299 135.823" stroke="black" stroke-width="2.61045" stroke-miterlimit="10" stroke-linecap="round" stroke-linejoin="round"/>
<path d="M181.757 88.0516C183.777 88.0516 185.413 86.2982 185.413 84.1359C185.413 81.9736 183.777 80.2202 181.757 80.2202C179.737 80.2202 178.101 81.9736 178.101 84.1359C178.101 86.2982 179.737 88.0516 181.757 88.0516Z" stroke="black" stroke-width="1.7403" stroke-miterlimit="10" stroke-linecap="round" stroke-linejoin="round"/>
<path d="M181.757 88.0516C183.777 88.0516 185.413 86.2982 185.413 84.1359C185.413 81.9736 183.777 80.2202 181.757 80.2202C179.737 80.2202 178.101 81.9736 178.101 84.1359C178.101 86.2982 179.737 88.0516 181.757 88.0516Z" fill="black"/>
<path d="M169.134 75.87C170.962 73.6946 175.228 72.2153 180.277 72.2153C184.282 72.2153 187.764 73.1725 189.94 74.6518" stroke="black" stroke-width="2.61045" stroke-miterlimit="10" stroke-linecap="round" stroke-linejoin="round"/>
<path d="M221.801 88.0516C223.821 88.0516 225.458 86.2982 225.458 84.1359C225.458 81.9736 223.821 80.2202 221.801 80.2202C219.782 80.2202 218.145 81.9736 218.145 84.1359C218.145 86.2982 219.782 88.0516 221.801 88.0516Z" stroke="black" stroke-width="1.7403" stroke-miterlimit="10" stroke-linecap="round" stroke-linejoin="round"/>
<path d="M221.801 88.0516C223.821 88.0516 225.458 86.2982 225.458 84.1359C225.458 81.9736 223.821 80.2202 221.801 80.2202C219.782 80.2202 218.145 81.9736 218.145 84.1359C218.145 86.2982 219.782 88.0516 221.801 88.0516Z" fill="black"/>
<path d="M234.425 75.87C232.597 73.6946 228.331 72.2153 223.282 72.2153C219.278 72.2153 215.796 73.1725 213.619 74.6518" stroke="black" stroke-width="2.61045" stroke-miterlimit="10" stroke-linecap="round" stroke-linejoin="round"/>
</svg>
