<svg width="673" height="542" viewBox="0 0 673 542" fill="none" xmlns="http://www.w3.org/2000/svg">
<g clip-path="url(#clip0_126_4881)">
<rect x="0.161743" y="0.211426" width="580.652" height="444.028" rx="23.9092" fill="#130038"/>
<rect x="0.161743" y="0.211426" width="580.652" height="91.0826" fill="#180144"/>
<circle cx="59.1274" cy="45.7529" r="19.1169" fill="#CB0025"/>
<circle cx="117.484" cy="45.7529" r="19.1169" fill="#FBB323"/>
<circle cx="175.841" cy="45.7529" r="19.1169" fill="#53A303"/>
<path d="M76.4437 136.835H41.1492L89.5368 187.5L41.1492 237.026H76.4437L127.108 187.5L76.4437 136.835Z" fill="#D9D9D9"/>
<rect x="127.677" y="222.225" width="117.269" height="14.8009" fill="#D9D9D9"/>
<g filter="url(#filter0_d_126_4881)">
<path fill-rule="evenodd" clip-rule="evenodd" d="M518.581 259.896C516.957 259.159 515.071 259.559 511.301 260.359L505.628 261.563C505.034 261.689 504.737 261.752 504.435 261.781C504.134 261.811 503.83 261.807 503.223 261.798L503.223 261.798L497.424 261.716C493.57 261.662 491.643 261.635 490.192 262.673C488.742 263.711 488.146 265.544 486.953 269.209L485.16 274.724C484.972 275.301 484.878 275.59 484.753 275.866C484.627 276.142 484.472 276.403 484.161 276.924L481.191 281.905C479.217 285.216 478.23 286.872 478.403 288.646C478.577 290.421 479.866 291.854 482.444 294.72L482.444 294.72L486.323 299.031C486.729 299.482 486.933 299.708 487.109 299.954C487.285 300.2 487.433 300.466 487.729 300.996L487.73 300.996L490.558 306.058C492.438 309.423 493.378 311.106 495.002 311.843C496.626 312.58 498.512 312.18 502.282 311.38L507.955 310.176L507.955 310.176C508.549 310.05 508.846 309.987 509.148 309.957C509.449 309.928 509.753 309.932 510.36 309.941L516.159 310.022C520.013 310.077 521.94 310.104 523.391 309.066C524.841 308.028 525.437 306.195 526.63 302.53L528.424 297.015C528.611 296.437 528.705 296.149 528.831 295.873C528.956 295.597 529.111 295.336 529.422 294.814L532.392 289.834C534.366 286.523 535.353 284.867 535.18 283.092C535.006 281.318 533.717 279.885 531.139 277.019L527.26 272.708C526.854 272.257 526.651 272.031 526.474 271.785C526.298 271.538 526.15 271.273 525.854 270.743L525.854 270.743L523.025 265.681C521.145 262.316 520.205 260.633 518.581 259.896ZM502.307 295.75C507.764 298.226 514.195 295.811 516.672 290.354C519.148 284.897 516.733 278.466 511.276 275.989C505.819 273.512 499.388 275.928 496.911 281.385C494.435 286.841 496.85 293.273 502.307 295.75Z" fill="#424CAB"/>
</g>
</g>
<g filter="url(#filter1_d_126_4881)">
<path fill-rule="evenodd" clip-rule="evenodd" d="M576.947 324.543V324.543V324.543C577.831 333.379 578.273 337.797 580.123 340.22C582.467 343.29 586.276 344.868 590.103 344.355C593.126 343.951 596.565 341.138 603.443 335.513C607.08 332.538 608.899 331.051 610.855 330.428C613.33 329.64 616.006 329.773 618.39 330.804C620.275 331.618 621.936 333.278 625.257 336.598L634.874 346.211C638.191 349.526 639.849 351.183 640.664 353.063C641.701 355.454 641.835 358.139 641.041 360.621C640.417 362.573 638.932 364.387 635.962 368.015L635.962 368.016C630.341 374.882 627.531 378.315 627.124 381.334C626.606 385.167 628.187 388.984 631.263 391.329C633.685 393.176 638.103 393.617 646.938 394.5L646.938 394.501C651.61 394.967 653.946 395.201 655.769 396.142C658.081 397.335 659.882 399.325 660.839 401.744C661.594 403.652 661.594 405.998 661.594 410.69V424.278C661.594 428.97 661.594 431.315 660.84 433.222C659.882 435.642 658.08 437.633 655.768 438.826C653.945 439.766 651.61 440 646.939 440.467H646.939C638.107 441.35 633.691 441.791 631.269 443.637C628.191 445.982 626.61 449.8 627.128 453.635C627.536 456.653 630.345 460.085 635.964 466.949L635.964 466.949C638.933 470.576 640.417 472.389 641.041 474.34C641.836 476.823 641.702 479.51 640.664 481.901C639.849 483.78 638.192 485.437 634.877 488.75L625.258 498.364C621.937 501.684 620.276 503.344 618.391 504.159C616.007 505.19 613.331 505.323 610.856 504.535C608.9 503.912 607.082 502.425 603.445 499.45L603.444 499.45C596.565 493.824 593.125 491.011 590.102 490.607C586.275 490.095 582.468 491.672 580.125 494.74C578.273 497.165 577.831 501.584 576.947 510.423V510.423C576.48 515.093 576.246 517.429 575.305 519.252C574.112 521.563 572.122 523.363 569.704 524.32C567.797 525.075 565.45 525.075 560.756 525.075H547.149C542.456 525.075 540.11 525.075 538.203 524.32C535.784 523.363 533.794 521.562 532.6 519.251C531.66 517.428 531.426 515.094 530.959 510.424C530.075 501.589 529.633 497.171 527.783 494.747C525.439 491.677 521.63 490.099 517.802 490.612C514.78 491.017 511.341 493.829 504.463 499.454C500.825 502.429 499.006 503.917 497.05 504.54C494.575 505.328 491.899 505.195 489.515 504.164C487.631 503.349 485.97 501.689 482.648 498.369L473.031 488.756C469.715 485.442 468.057 483.784 467.241 481.904C466.205 479.514 466.071 476.828 466.864 474.346C467.489 472.394 468.974 470.58 471.944 466.952C477.564 460.086 480.375 456.652 480.782 453.633C481.299 449.8 479.719 445.984 476.643 443.638C474.221 441.792 469.803 441.35 460.968 440.467C456.296 440 453.96 439.766 452.137 438.826C449.826 437.633 448.024 435.642 447.067 433.223C446.312 431.316 446.312 428.97 446.312 424.277V410.692C446.312 405.998 446.312 403.651 447.067 401.743C448.025 399.325 449.825 397.335 452.136 396.142C453.96 395.201 456.296 394.967 460.969 394.5H460.969C469.807 393.617 474.226 393.175 476.649 391.327C479.724 388.982 481.303 385.168 480.787 381.336C480.38 378.316 477.568 374.881 471.946 368.012C468.975 364.382 467.489 362.568 466.865 360.615C466.072 358.134 466.206 355.449 467.242 353.06C468.057 351.179 469.716 349.521 473.033 346.205L473.033 346.205L482.649 336.593C485.971 333.273 487.631 331.614 489.516 330.799C491.9 329.768 494.576 329.635 497.051 330.423C499.007 331.046 500.826 332.534 504.464 335.509C511.341 341.133 514.78 343.945 517.801 344.35C521.63 344.864 525.441 343.285 527.784 340.214C529.634 337.791 530.075 333.374 530.959 324.541C531.426 319.874 531.66 317.54 532.6 315.718C533.793 313.405 535.784 311.604 538.204 310.647C540.111 309.892 542.456 309.892 547.147 309.892H560.757C565.45 309.892 567.796 309.892 569.703 310.647C572.122 311.604 574.112 313.405 575.305 315.717C576.246 317.54 576.48 319.874 576.947 324.543ZM553.953 460.52C577.732 460.52 597.009 441.252 597.009 417.484C597.009 393.715 577.732 374.447 553.953 374.447C530.173 374.447 510.896 393.715 510.896 417.484C510.896 441.252 530.173 460.52 553.953 460.52Z" fill="#FBB323"/>
</g>
<g filter="url(#filter2_d_126_4881)">
<path fill-rule="evenodd" clip-rule="evenodd" d="M605.211 182.375C601.244 182.375 597.791 184.918 590.887 190.005L580.481 197.671C579.393 198.473 578.849 198.874 578.265 199.211C577.681 199.548 577.062 199.818 575.824 200.359L575.824 200.359L563.987 205.529C556.124 208.965 552.192 210.682 550.207 214.12C548.222 217.558 548.7 221.822 549.656 230.35L551.093 243.171C551.244 244.515 551.319 245.187 551.319 245.861C551.319 246.536 551.244 247.208 551.093 248.552L549.656 261.373C548.7 269.901 548.222 274.165 550.207 277.603C552.192 281.041 556.124 282.758 563.987 286.193L575.824 291.364C577.062 291.904 577.681 292.175 578.265 292.512C578.849 292.849 579.393 293.25 580.481 294.051L590.887 301.718C597.791 306.805 601.244 309.348 605.211 309.348C609.179 309.348 612.631 306.805 619.535 301.718L629.942 294.051C631.029 293.25 631.573 292.849 632.157 292.512C632.741 292.175 633.36 291.904 634.599 291.364L646.435 286.193C654.299 282.758 658.231 281.041 660.216 277.603C662.201 274.165 661.723 269.901 660.767 261.373L659.329 248.552L659.329 248.551C659.179 247.208 659.104 246.536 659.104 245.861C659.104 245.187 659.179 244.515 659.329 243.171L659.329 243.171L660.767 230.35C661.723 221.822 662.201 217.558 660.216 214.12C658.231 210.682 654.299 208.965 646.435 205.529L634.599 200.359C633.36 199.818 632.741 199.548 632.157 199.211C631.573 198.874 631.029 198.473 629.942 197.671L619.535 190.005C612.631 184.918 609.179 182.375 605.211 182.375ZM605.211 270.01C618.554 270.01 629.371 259.198 629.371 245.861C629.371 232.524 618.554 221.712 605.211 221.712C591.868 221.712 581.051 232.524 581.051 245.861C581.051 259.198 591.868 270.01 605.211 270.01Z" fill="#29C566"/>
</g>
<defs>
<filter id="filter0_d_126_4881" x="469.176" y="251.323" width="70.116" height="66.0243" filterUnits="userSpaceOnUse" color-interpolation-filters="sRGB">
<feFlood flood-opacity="0" result="BackgroundImageFix"/>
<feColorMatrix in="SourceAlpha" type="matrix" values="0 0 0 0 0 0 0 0 0 0 0 0 0 0 0 0 0 0 127 0" result="hardAlpha"/>
<feOffset dx="-2.55775" dy="-1.53465"/>
<feGaussianBlur stdDeviation="3.32507"/>
<feComposite in2="hardAlpha" operator="out"/>
<feColorMatrix type="matrix" values="0 0 0 0 0 0 0 0 0 0 0 0 0 0 0 0 0 0 0.15 0"/>
<feBlend mode="normal" in2="BackgroundImageFix" result="effect1_dropShadow_126_4881"/>
<feBlend mode="normal" in="SourceGraphic" in2="effect1_dropShadow_126_4881" result="shape"/>
</filter>
<filter id="filter1_d_126_4881" x="418.987" y="287.122" width="253.992" height="253.893" filterUnits="userSpaceOnUse" color-interpolation-filters="sRGB">
<feFlood flood-opacity="0" result="BackgroundImageFix"/>
<feColorMatrix in="SourceAlpha" type="matrix" values="0 0 0 0 0 0 0 0 0 0 0 0 0 0 0 0 0 0 127 0" result="hardAlpha"/>
<feOffset dx="-7.96973" dy="-3.4156"/>
<feGaussianBlur stdDeviation="9.67753"/>
<feComposite in2="hardAlpha" operator="out"/>
<feColorMatrix type="matrix" values="0 0 0 0 0 0 0 0 0 0 0 0 0 0 0 0 0 0 0.1 0"/>
<feBlend mode="normal" in2="BackgroundImageFix" result="effect1_dropShadow_126_4881"/>
<feBlend mode="normal" in="SourceGraphic" in2="effect1_dropShadow_126_4881" result="shape"/>
</filter>
<filter id="filter2_d_126_4881" x="528.335" y="164.158" width="142.368" height="156.575" filterUnits="userSpaceOnUse" color-interpolation-filters="sRGB">
<feFlood flood-opacity="0" result="BackgroundImageFix"/>
<feColorMatrix in="SourceAlpha" type="matrix" values="0 0 0 0 0 0 0 0 0 0 0 0 0 0 0 0 0 0 127 0" result="hardAlpha"/>
<feOffset dx="-5.69266" dy="-3.4156"/>
<feGaussianBlur stdDeviation="7.40046"/>
<feComposite in2="hardAlpha" operator="out"/>
<feColorMatrix type="matrix" values="0 0 0 0 0 0 0 0 0 0 0 0 0 0 0 0 0 0 0.15 0"/>
<feBlend mode="normal" in2="BackgroundImageFix" result="effect1_dropShadow_126_4881"/>
<feBlend mode="normal" in="SourceGraphic" in2="effect1_dropShadow_126_4881" result="shape"/>
</filter>
<clipPath id="clip0_126_4881">
<rect x="0.161743" y="0.211426" width="580.652" height="444.028" rx="23.9092" fill="white"/>
</clipPath>
</defs>
</svg>
