<svg width="49" height="32" viewBox="0 0 49 32" fill="none" xmlns="http://www.w3.org/2000/svg">
<path d="M4.76295 13.8425L2.60541 12.5795L0.0795174 16.8946L2.23705 18.1576L4.76295 13.8425ZM24.25 28.1464L22.9871 30.3039L24.25 31.0432L25.5129 30.3039L24.25 28.1464ZM46.2629 18.1576L48.4205 16.8946L45.8946 12.5795L43.7371 13.8425L46.2629 18.1576ZM2.23705 18.1576L22.9871 30.3039L25.5129 25.9888L4.76295 13.8425L2.23705 18.1576ZM25.5129 30.3039L46.2629 18.1576L43.7371 13.8425L22.9871 25.9888L25.5129 30.3039Z" fill="white"/>
<path d="M4.76295 1.69612L2.60541 0.433174L0.0795176 4.74825L2.23705 6.0112L4.76295 1.69612ZM24.25 16L22.9871 18.1575L24.25 18.8968L25.5129 18.1575L24.25 16ZM46.2629 6.0112L48.4205 4.74825L45.8946 0.433176L43.7371 1.69612L46.2629 6.0112ZM2.23705 6.0112L22.9871 18.1575L25.5129 13.8425L4.76295 1.69612L2.23705 6.0112ZM25.5129 18.1575L46.2629 6.0112L43.7371 1.69612L22.9871 13.8425L25.5129 18.1575Z" fill="white"/>
</svg>
