<svg width="19" height="19" viewBox="0 0 19 19" fill="none" xmlns="http://www.w3.org/2000/svg">
<path d="M1.5835 9.49984L1.19306 9.18749L0.943184 9.49984L1.19306 9.81218L1.5835 9.49984ZM8.7085 9.99984C8.98464 9.99984 9.2085 9.77598 9.2085 9.49984C9.2085 9.22369 8.98464 8.99984 8.7085 8.99984V9.99984ZM4.35973 5.22916L1.19306 9.18749L1.97393 9.81218L5.1406 5.85385L4.35973 5.22916ZM1.19306 9.81218L4.35973 13.7705L5.1406 13.1458L1.97393 9.18749L1.19306 9.81218ZM1.5835 9.99984H8.7085V8.99984H1.5835V9.99984Z" fill="#A20000"/>
<path d="M7.9165 6.43794V5.8494C7.9165 4.56821 7.9165 3.92762 8.29172 3.48469C8.66694 3.04176 9.29882 2.93644 10.5626 2.72582L11.8856 2.50531C14.4531 2.0774 15.7368 1.86345 16.5766 2.57492C17.4165 3.28638 17.4165 4.58782 17.4165 7.19068V11.8096C17.4165 14.4125 17.4165 15.7139 16.5766 16.4254C15.7368 17.1369 14.4531 16.9229 11.8856 16.495L10.5626 16.2745C9.29882 16.0639 8.66694 15.9586 8.29172 15.5156C7.9165 15.0727 7.9165 14.4321 7.9165 13.1509V12.7191" stroke="#A20000"/>
</svg>
